<?xml version="1.0" encoding="utf-8"?>
<!-- Generator: Adobe Illustrator 23.0.1, SVG Export Plug-In . SVG Version: 6.00 Build 0)  -->
<svg version="1.1" id="Layer_1" xmlns="http://www.w3.org/2000/svg" xmlns:xlink="http://www.w3.org/1999/xlink" x="0px" y="0px"
	 viewBox="0 0 113.8 63.1" style="enable-background:new 0 0 113.8 63.1;" xml:space="preserve">
<style type="text/css">
	.st0{display:none;}
	.st1{fill:#FFFFFF;}
	.st2{fill:#C5C7C9;}
	.st3{fill:#231F20;}
	.st4{fill:#A6A8AB;}
	.st5{fill:#FFC10E;}
	.st6{display:inline;fill:#A6A8AB;}
	.st7{fill:#1974BB;}
</style>
<g transform="translate(-668 -39)">
	<g id="QEr32z.tif" class="st0">
		
			<image style="display:inline;overflow:visible;" width="149" height="83" id="Layer_0" xlink:href="6B463361981B95B.png"  transform="matrix(0.7651 0 0 0.7651 667.7 39.1483)">
		</image>
	</g>
	<path class="st1" d="M688.8,48.5c-9.8,0-17.7,7.9-17.7,17.7s7.9,17.7,17.7,17.7h73.8c9.8,0,17.7-7.9,17.7-17.7s-7.9-17.7-17.7-17.7
		L688.8,48.5z"/>
	<path class="st2" d="M688.8,48.5c-9.8,0-17.7,7.9-17.7,17.7s7.9,17.7,17.7,17.7h73.8c9.8,0,17.7-7.9,17.7-17.7s-7.9-17.7-17.7-17.7
		L688.8,48.5z M762.6,85.4h-73.8c-10.6,0-19.2-8.6-19.2-19.2S678.2,47,688.8,47h73.8c10.6,0,19.2,8.6,19.2,19.2
		S773.2,85.4,762.6,85.4z"/>
	<path class="st3" d="M753.8,63.3c-1.5,0-2.7-1.2-2.7-2.7s1.2-2.7,2.7-2.7s2.7,1.2,2.7,2.7S755.3,63.3,753.8,63.3 M753.8,55.5
		c-2.9,0-5.2,2.3-5.2,5.2s2.3,5.2,5.2,5.2s5.2-2.3,5.2-5.2S756.7,55.5,753.8,55.5"/>
	<path class="st3" d="M730,63.3c-1.5,0-2.7-1.2-2.7-2.7s1.2-2.7,2.7-2.7s2.7,1.2,2.7,2.7S731.5,63.3,730,63.3 M730,55.5
		c-2.9,0-5.2,2.3-5.2,5.2s2.3,5.2,5.2,5.2s5.2-2.3,5.2-5.2S732.9,55.5,730,55.5"/>
	<path class="st3" d="M748.3,63.5c-0.3,0.1-0.8,0.2-1,0.2c-0.9,0-1.1-0.3-1.1-1.2v-4.8h2.1v-2h-2.1v-2.8h-2.4l-0.5,2.8h-1.8
		c-1.4,0-2.4,0.8-3,2.1l-0.8-2.1H736v10h2.9v-4.3c0-2.2,1.3-3.6,2.8-3.6h1.6v4.9c0,2.3,1.2,3.2,3.1,3.2c1,0,1.8-0.2,2.2-0.4
		L748.3,63.5z"/>
	<path class="st3" d="M762.5,58.8v6.9h-2.8v-10h1.7l0.6,1.5"/>
	<path class="st3" d="M762,57.2c0.9-1,2-1.8,3.4-1.8c2.4,0,3.3,1.9,3.3,3.6v6.5h-2.9V59c0-0.9-0.7-1.3-1.5-1.3s-1.3,0.5-1.8,1"/>
	<path class="st3" d="M713.4,52.1h3.3l4.4,8.5v-8.5h2.7v13.6h-2.9l-4.8-9.4v9.4h-2.7V52.1z"/>
	<path class="st4" d="M777.4,47v0.5h-0.7v2.4h-0.6v-2.4h-0.7V47H777.4z"/>
	<path class="st4" d="M777.8,49.9V47h0.7l0.5,1.9l0.5-1.9h0.8v2.9h-0.5v-2.3l-0.6,2.3h-0.4l-0.5-2.3h-0.1v2.3H777.8z"/>
	<path class="st4" d="M712.6,77.7l0.7-1.1c0.5,0.4,1.4,0.8,2.4,0.8s1.6-0.4,1.6-1.2c0-0.9-0.8-1.1-2-1.6c-1.1-0.4-2.2-1-2.2-2.6
		c0-1.5,1.2-2.3,2.8-2.3c1.1,0,1.8,0.2,2.5,0.6l-0.5,1.1c-0.5-0.3-1.1-0.5-1.9-0.5c-0.9,0-1.4,0.3-1.4,1c0,0.8,0.6,1,1.8,1.4
		s2.5,0.9,2.5,2.7c0,1.5-1.1,2.5-3,2.5C714.2,78.6,713.2,78.1,712.6,77.7"/>
	<path class="st4" d="M721.2,69.9h5.1v1.2h-3.6v2.4h2.9v1.1h-2.9v2.7h3.9v1.2h-5.4V69.9z"/>
	<path class="st4" d="M728.6,74.2c0-2.5,1.2-4.4,3.6-4.4c1.1,0,1.9,0.3,2.5,1l-0.9,1c-0.5-0.5-1-0.8-1.7-0.8c-1.4,0-2.1,1.2-2.1,3.3
		c0,2,0.7,3,2.1,3c0.8,0,1.3-0.4,1.8-0.9l0.9,1c-0.6,0.7-1.4,1.2-2.7,1.2C729.8,78.6,728.6,76.8,728.6,74.2"/>
	<path class="st4" d="M737.3,75.2v-5.3h1.5v5.6c0,1.2,0.3,2,1.5,2s1.5-0.8,1.5-2v-5.6h1.5v5.3c0,2.1-0.8,3.4-3,3.4
		S737.3,77.4,737.3,75.2"/>
	<path class="st4" d="M749,73.7c1.1,0,1.7-0.4,1.7-1.4s-0.6-1.3-1.6-1.3h-1.4v2.6h1.3V73.7z M752.3,78.5h-1.6l-1.7-3.7h-1.4v3.7
		h-1.5v-8.6h2.8c1.7,0,3.1,0.6,3.1,2.5c0,1.3-0.8,1.9-1.6,2.2L752.3,78.5z"/>
	<path class="st4" d="M754.8,69.9h5.2v1.2h-3.7v2.4h2.9v1.1h-2.9v2.7h3.9v1.2h-5.4V69.9z"/>
	<path class="st4" d="M764.7,77.3c2,0,2.7-0.9,2.7-3.1c0-1.9-0.5-3.1-2.5-3.1h-0.8v6.2H764.7z M762.6,69.9h2.2
		c2.8,0,4.2,1.5,4.2,4.3s-1.4,4.3-4.1,4.3h-2.2v-8.6L762.6,69.9z"/>
	<path class="st5" d="M688.8,52c-3.8,0-7.3,1.5-10,4.2s-4.2,6.2-4.2,10s1.5,7.3,4.2,10s6.2,4.1,10,4.2c3.8,0,7.3-1.5,10-4.2
		s4.1-6.2,4.2-10c0-3.8-1.5-7.3-4.2-10S692.5,52,688.8,52 M688.8,86.9c-11.4,0-20.7-9.3-20.7-20.7s9.3-20.7,20.7-20.7
		s20.7,9.3,20.7,20.7S700.2,86.9,688.8,86.9"/>
	<path class="st5" d="M711.3,43.9h1.7v-1.6h-1.7V43.9z"/>
	<path class="st5" d="M711.3,40.7h1.7v-1.6h-1.7V40.7z"/>
	<path class="st5" d="M706.8,45.5h1.5v-1.6h-1.5V45.5z"/>
	<path class="st3" d="M703.8,48.5h1.5V47h-1.5V48.5z"/>
	<path class="st3" d="M708.3,47h1.7v-1.5h-1.7V47z"/>
	<path class="st3" d="M702.3,47h1.5v-1.5h-1.5V47z"/>
	<path class="st3" d="M706.8,48.5h1.5V47h-1.5V48.5z"/>
	<path class="st3" d="M709.7,42.3h1.6v-1.6h-1.6V42.3z"/>
	<path class="st3" d="M706.8,43.9h2.9v-1.6h-2.9V43.9z"/>
	<path class="st3" d="M705.3,47h1.5v-3.1h-1.5V47z"/>
	<path class="st3" d="M705.3,48.5V50h-1.5v-1.5h-2.5v1.1h-1.4V51h1.5v1.5h-1.5V51h-1.6v2.4h-1.5v1.5h-1v1.5h-1.1
		c-1.2,1.9-4.4,7.6-5.3,10c-3.4-4.7-6-6.6-8.1-7.3c-1.1-0.3-2.5,0.9-0.6,2.8c4.3,4.7,5.6,8.6,6.9,11.7c0.7,1.6,3.8,1.9,4.4,0.2
		c1.3-3.5,3.2-7.5,5.5-10.7v-1.7h1.2v-1.5h1.3v-1.8h1.5v-1.7H700v-1.5h1.5v1.5h1.5v-1.5h1.2V53h1.4v-1.3h1.3v-3.2L705.3,48.5z"/>
	<path class="st4" d="M681.1,96.6c0-1-0.6-1.6-1.4-1.6s-1.4,0.6-1.4,1.6s0.7,1.6,1.4,1.6C680.5,98.2,681.1,97.6,681.1,96.6z
		 M677.1,94.1h1.1V95c0.4-0.5,0.9-0.9,1.7-0.9c1.2,0,2.3,0.9,2.3,2.7c0,1.6-1.1,2.7-2.3,2.7c-0.8,0-1.3-0.4-1.7-0.9v2.3h-1.1V94.1z"
		/>
	<path class="st4" d="M687.5,96.7c0-0.9-0.6-1.6-1.5-1.6s-1.5,0.7-1.5,1.6c0,0.9,0.6,1.6,1.5,1.6C686.9,98.2,687.5,97.5,687.5,96.7
		 M683.2,96.7c0-1.4,1.1-2.7,2.7-2.7s2.7,1.2,2.7,2.7c0,1.4-1.1,2.7-2.8,2.7C684.3,99.2,683.2,98.1,683.2,96.7"/>
	<path class="st4" d="M689.1,94.1h1.2l1,3.4l1.1-3.5h1l1.1,3.5l1-3.4h1.1l-1.6,5h-1l-1.1-3.4l-1.1,3.4h-1L689.1,94.1z"/>
	<path class="st4" d="M701.2,96.3c-0.1-0.7-0.5-1.3-1.3-1.3c-0.7,0-1.2,0.5-1.3,1.3H701.2z M697.4,96.6c0-1.4,1-2.7,2.4-2.7
		c1.6,0,2.4,1.2,2.4,2.8V97h-3.7c0.1,0.8,0.7,1.3,1.4,1.3c0.6,0,0.9-0.2,1.3-0.6l0.7,0.6c-0.5,0.6-1.1,0.9-2,0.9
		C698.5,99.2,697.4,98.2,697.4,96.6L697.4,96.6z"/>
	<path class="st4" d="M703.5,94.1h1.1v1.1c0.3-0.7,0.9-1.2,1.8-1.2v1.2h-0.1c-1,0-1.7,0.6-1.7,2v1.8h-1.1V94.1z"/>
	<path class="st4" d="M710.9,96.3c-0.1-0.7-0.5-1.3-1.3-1.3c-0.7,0-1.2,0.5-1.3,1.3H710.9z M707.1,96.6c0-1.4,1-2.7,2.4-2.7
		c1.6,0,2.4,1.2,2.4,2.8V97h-3.7c0.1,0.8,0.7,1.3,1.4,1.3c0.6,0,0.9-0.2,1.3-0.6l0.7,0.6c-0.5,0.6-1.1,0.9-2,0.9
		C708.2,99.2,707.1,98.2,707.1,96.6L707.1,96.6z"/>
	<path class="st4" d="M717.1,96.6c0-1-0.7-1.6-1.4-1.6c-0.8,0-1.4,0.6-1.4,1.6s0.7,1.6,1.4,1.6S717.1,97.6,717.1,96.6 M712.9,96.6
		c0-1.7,1.1-2.7,2.3-2.7c0.8,0,1.3,0.4,1.7,0.9v-2.8h1.1v7H717v-0.8c-0.4,0.5-0.9,0.9-1.7,0.9C714.1,99.2,712.9,98.3,712.9,96.6"/>
	<path class="st4" d="M726.6,96.6c0-1-0.6-1.6-1.4-1.6c-0.8,0-1.4,0.6-1.4,1.6s0.7,1.6,1.4,1.6C725.9,98.2,726.6,97.6,726.6,96.6
		 M723.6,98.3v0.8h-1.1v-6.9h1.1V95c0.4-0.5,0.9-0.9,1.7-0.9c1.2,0,2.3,0.9,2.3,2.7c0,1.6-1.1,2.7-2.3,2.7
		C724.5,99.2,724,98.8,723.6,98.3"/>
	<path class="st4" d="M728.5,100.4l0.4-0.8c0.2,0.1,0.4,0.2,0.7,0.2s0.5-0.1,0.7-0.6l-2.1-5.1h1.2l1.4,3.8l1.3-3.8h1.2l-2,5.2
		c-0.4,1-0.8,1.4-1.6,1.4C729.2,100.7,728.8,100.6,728.5,100.4"/>
	<g class="st0">
		<path class="st6" d="M734.6,92.4h1.3l2,5.1l1.9-5.1h1.3l-2.7,6.7h-1.1L734.6,92.4z"/>
		<path class="st6" d="M745,96.2c-0.1-0.7-0.5-1.3-1.3-1.3c-0.7,0-1.2,0.5-1.3,1.3H745z M741.3,96.5c0-1.4,1-2.6,2.4-2.6
			c1.6,0,2.4,1.2,2.4,2.7v0.3h-3.6c0.1,0.8,0.7,1.3,1.4,1.3c0.6,0,0.9-0.2,1.3-0.6l0.7,0.6c-0.5,0.6-1.1,0.9-2,0.9
			C742.4,99.1,741.3,98.1,741.3,96.5L741.3,96.5z"/>
		<path class="st6" d="M747.3,94.1h1.1v1.1c0.3-0.7,0.9-1.2,1.8-1.2v1.2h-0.1c-1,0-1.7,0.6-1.7,2V99h-1.1V94.1z"/>
		<path class="st6" d="M751.2,99h1.1v-5h-1.1V99z M751.1,93.3h1.2v-1.1h-1.2V93.3z"/>
		<path class="st6" d="M753.5,98l0.7-0.8c0.6,0.5,1.3,0.9,2.1,0.9c0.7,0,1.2-0.3,1.2-0.8s-0.3-0.7-1.5-1c-1.4-0.3-2.2-0.8-2.2-2
			c0-1.1,0.9-1.9,2.2-1.9c1,0,1.7,0.3,2.4,0.8l-0.6,0.9c-0.6-0.4-1.2-0.7-1.8-0.7c-0.7,0-1.1,0.3-1.1,0.8s0.3,0.7,1.6,1
			c1.4,0.3,2.1,0.8,2.1,1.9c0,1.2-1,2-2.3,2C755.2,99.1,754.3,98.8,753.5,98"/>
		<path class="st6" d="M759.9,99h1.1v-5h-1.1V99z M759.8,93.3h1.2v-1.1h-1.2V93.3z"/>
		<path class="st6" d="M766.2,96.3c0-0.8-0.7-1.4-1.5-1.4s-1.4,0.5-1.4,1.4c0,0.8,0.6,1.4,1.4,1.4S766.2,97.1,766.2,96.3
			 M762.4,99.9l0.4-0.9c0.5,0.3,1.1,0.5,1.8,0.5c1,0,1.6-0.5,1.6-1.5v-0.4c-0.4,0.5-0.9,0.9-1.7,0.9c-1.2,0-2.3-0.9-2.3-2.3
			c0-1.5,1.1-2.3,2.3-2.3c0.8,0,1.4,0.4,1.7,0.8V94h1.1v4c0,0.8-0.2,1.5-0.6,1.9c-0.4,0.5-1.1,0.7-2,0.7
			C763.8,100.5,763.1,100.3,762.4,99.9"/>
		<path class="st6" d="M768.8,94.1h1.1v0.8c0.3-0.5,0.8-0.9,1.5-0.9c1.1,0,1.8,0.8,1.8,1.9V99h-1.1v-2.8c0-0.8-0.4-1.2-1.1-1.2
			s-1.1,0.5-1.1,1.2V99h-1.1L768.8,94.1z"/>
	</g>
	<g>
		<path id="path3430" class="st7" d="M768.4,97.6v-2.7h-0.7V94h0.8v-1.7h1V94h1.3v0.9h-1.3v2.5c0,0.2,0,0.4,0.1,0.6
			c0.1,0.2,0.1,0.3,0.2,0.4c0.1,0.1,0.2,0.2,0.3,0.2c0.1,0.1,0.2,0.1,0.3,0.1c0.1,0,0.2,0,0.3,0l0.3,0v1c-0.1,0-0.2,0-0.4,0
			c-0.2,0-0.3,0-0.5,0s-0.3-0.1-0.5-0.2c-0.2-0.1-0.4-0.2-0.5-0.4c-0.2-0.2-0.3-0.4-0.4-0.6C768.5,98.2,768.4,98,768.4,97.6
			L768.4,97.6z M764,99.7v-5.8h1v1l0,0.4h0c0.1-0.4,0.3-0.8,0.7-1.1c0.3-0.3,0.7-0.4,1.1-0.4l0.3,0v1.1c-0.1,0-0.2,0-0.3,0
			c-0.3,0-0.7,0.1-0.9,0.4c-0.3,0.2-0.5,0.6-0.6,1c-0.1,0.3-0.1,0.7-0.1,1v2.3L764,99.7L764,99.7L764,99.7z M758.1,96.8
			c0-0.9,0.3-1.6,0.8-2.2s1.2-0.8,2-0.8c0.8,0,1.3,0.3,1.8,0.8c0.4,0.5,0.6,1.1,0.6,1.9l0,0.5h-4c0,0.6,0.2,1.1,0.6,1.4
			s0.8,0.5,1.3,0.5c0.3,0,0.6-0.1,0.8-0.2c0.3-0.1,0.5-0.2,0.6-0.3l0.2-0.2l0.4,0.8c-0.1,0.1-0.2,0.1-0.3,0.2
			c-0.1,0.1-0.4,0.2-0.7,0.4c-0.4,0.2-0.8,0.2-1.2,0.2c-0.8,0-1.6-0.3-2.1-0.8C758.4,98.4,758.1,97.7,758.1,96.8L758.1,96.8z
			 M759.2,96.1h2.9c0-0.5-0.2-0.8-0.4-1.1c-0.3-0.3-0.6-0.4-0.9-0.4c-0.4,0-0.8,0.1-1.1,0.4C759.5,95.3,759.3,95.7,759.2,96.1z
			 M752.8,96.8c0-0.8,0.3-1.6,0.8-2.2s1.3-0.9,2.1-0.9c0.4,0,0.8,0.1,1.1,0.2c0.3,0.1,0.6,0.3,0.8,0.4l0.2,0.2l-0.5,0.8
			c0,0-0.1-0.1-0.2-0.2c-0.1-0.1-0.3-0.2-0.5-0.3c-0.3-0.1-0.5-0.2-0.8-0.2c-0.6,0-1,0.2-1.4,0.6c-0.4,0.4-0.5,0.9-0.5,1.5
			s0.2,1.1,0.6,1.5c0.4,0.4,0.8,0.6,1.4,0.6c0.3,0,0.6-0.1,0.9-0.2c0.3-0.1,0.5-0.3,0.6-0.4l0.2-0.2l0.4,0.8c0,0-0.1,0.1-0.1,0.1
			c0,0-0.1,0.1-0.3,0.2c-0.1,0.1-0.3,0.2-0.4,0.3c-0.2,0.1-0.4,0.2-0.6,0.2c-0.3,0.1-0.5,0.1-0.8,0.1c-0.9,0-1.6-0.3-2.1-0.8
			C753.1,98.4,752.8,97.7,752.8,96.8L752.8,96.8z M750.9,92.8v-1.1h1.1v1.1H750.9z M751,99.7v-5.8h1.1v5.8H751z M745.7,100.7
			c0.5,0.3,1,0.4,1.5,0.4s0.9-0.1,1.3-0.4c0.3-0.3,0.5-0.7,0.5-1.2v-0.4v-0.4h0c-0.3,0.6-0.9,0.9-1.6,0.9s-1.3-0.3-1.8-0.8
			c-0.4-0.6-0.7-1.3-0.7-2.1c0-0.8,0.2-1.5,0.7-2.1c0.4-0.5,1-0.8,1.8-0.8c0.3,0,0.5,0,0.7,0.1c0.2,0.1,0.4,0.1,0.5,0.2
			c0.1,0.1,0.2,0.2,0.3,0.3c0.1,0.1,0.2,0.2,0.2,0.2l0.1,0.1h0c0-0.1,0-0.1,0-0.2v-0.5h1v5.5c0,0.5-0.1,0.8-0.2,1.2
			c-0.2,0.4-0.4,0.6-0.6,0.8c-0.3,0.2-0.6,0.4-0.9,0.5c-0.3,0.1-0.7,0.2-1,0.2c-0.7,0-1.3-0.2-1.9-0.5L745.7,100.7L745.7,100.7z
			 M747.6,98.6c0.4,0,0.8-0.2,1.1-0.5c0.3-0.3,0.4-0.8,0.4-1.5c0-1.3-0.5-1.9-1.6-1.9c-0.5,0-0.8,0.2-1.1,0.5
			c-0.3,0.3-0.4,0.8-0.4,1.4c0,0.6,0.2,1.1,0.4,1.5C746.7,98.5,747.1,98.6,747.6,98.6z M743,92.8v-1.1h1.1v1.1H743z M743.1,99.7
			v-5.8h1.1v5.8H743.1z M736.9,96.8c0-0.9,0.2-1.6,0.7-2.2c0.5-0.6,1.1-0.8,1.8-0.8c0.3,0,0.5,0,0.7,0.1c0.2,0.1,0.4,0.1,0.5,0.2
			c0.1,0.1,0.2,0.2,0.3,0.3c0.1,0.1,0.2,0.2,0.2,0.2l0,0.1h0c0-0.1,0-0.2,0-0.4v-2.7h1.1v8h-1v-0.6v-0.4h0c0,0,0,0.1-0.1,0.1
			c0,0-0.1,0.1-0.2,0.3c-0.1,0.1-0.2,0.2-0.3,0.3c-0.1,0.1-0.3,0.2-0.5,0.3c-0.2,0.1-0.5,0.1-0.7,0.1c-0.8,0-1.3-0.3-1.8-0.8
			C737.1,98.4,736.9,97.7,736.9,96.8L736.9,96.8z M738,96.8c0,0.6,0.2,1.1,0.4,1.5c0.3,0.4,0.7,0.6,1.1,0.6c0.4,0,0.8-0.2,1.1-0.5
			c0.3-0.4,0.5-0.8,0.5-1.6c0-0.6-0.1-1-0.4-1.4c-0.3-0.4-0.7-0.6-1.2-0.6c-0.4,0-0.8,0.2-1.1,0.6C738.1,95.7,738,96.2,738,96.8z"/>
		<path id="path3440" class="st7" d="M771.7,93.4v-1.2h0.4c0.1,0,0.2,0,0.2,0c0.1,0,0.1,0.1,0.2,0.1s0.1,0.1,0.1,0.2
			c0,0.1,0,0.2-0.1,0.2c0,0.1-0.1,0.1-0.2,0.1l0,0c0,0,0,0,0,0.1l0.3,0.5h-0.2l-0.3-0.5h-0.3v0.5L771.7,93.4L771.7,93.4L771.7,93.4z
			 M771.9,92.7h0.3c0.1,0,0.1,0,0.2-0.1s0.1-0.1,0.1-0.2c0-0.1,0-0.2-0.1-0.2c0,0-0.1,0-0.2,0H772L771.9,92.7L771.9,92.7L771.9,92.7
			z M772.1,91.6c-0.6,0-1.1,0.5-1.1,1.1c0,0.6,0.5,1.1,1.1,1.1c0.6,0,1.1-0.5,1.1-1.1C773.2,92.1,772.7,91.6,772.1,91.6 M772.1,93.7
			c-0.5,0-0.9-0.4-0.9-0.9c0-0.5,0.4-0.9,0.9-0.9c0.5,0,0.9,0.4,0.9,0.9C773,93.3,772.6,93.7,772.1,93.7"/>
	</g>
</g>
</svg>
